<?xml version="1.0" encoding="utf-8"?>
<!-- Generator: Adobe Illustrator 24.1.1, SVG Export Plug-In . SVG Version: 6.00 Build 0)  -->
<svg version="1.1" id="Layer_1" xmlns="http://www.w3.org/2000/svg" xmlns:xlink="http://www.w3.org/1999/xlink" x="0px" y="0px"
	 viewBox="0 0 595.28 595.28" style="enable-background:new 0 0 595.28 595.28;" xml:space="preserve">
<style type="text/css">
	.st0{fill:#AC1F24;}
</style>
<g>
	<path class="st0" d="M501.21,397.02l-28.97-43.45l7.24,38.63c0,15.69-31.38,9.66-31.38,9.66c-39.99-8.22-140.02-48.28-173.82-65.18
		c0,0-130.36-55.52-181.06-115.88c0,0-9.66-19.31,16.9-38.63c-24.39,6.52-48.28,19.31-31.38,50.7
		c9.27,17.51,29.04,34.46,54.45,51.76c-3.11,67.02,18.4,102.93,75.91,141.37c87.81,46.49,155.53,12.97,187.16-10.08
		c31.18,8.06,61.38,13.37,83.22,12.5C504.44,425.25,508.45,418.74,501.21,397.02z"/>
	<path class="st0" d="M449.31,289.59c0-87.33-70.79-158.12-158.12-158.12c-69.57,0-128.6,44.95-149.75,107.38
		c75.77,50.55,178.58,102.22,287.52,128.33C441.89,344.24,449.31,317.79,449.31,289.59z M256.46,251.12
		c-20.25,0-36.67-16.42-36.67-36.67c0-20.25,16.42-36.67,36.67-36.67c20.25,0,36.67,16.42,36.67,36.67
		C293.14,234.7,276.72,251.12,256.46,251.12z"/>
</g>
</svg>
