<svg width="17" height="17" viewBox="0 0 17 17" fill="none" xmlns="http://www.w3.org/2000/svg">
<g clip-path="url(#clip0_9_235)">
<path d="M0.299561 1.7583C0.299561 1.1253 0.825561 0.612305 1.47456 0.612305H15.1246C15.7736 0.612305 16.2996 1.1253 16.2996 1.7583V15.4663C16.2996 16.0993 15.7736 16.6123 15.1246 16.6123H1.47456C0.825561 16.6123 0.299561 16.0993 0.299561 15.4663V1.7583ZM5.24256 14.0063V6.7813H2.84156V14.0063H5.24256ZM4.04256 5.7943C4.87956 5.7943 5.40056 5.2403 5.40056 4.5463C5.38556 3.8373 4.88056 3.2983 4.05856 3.2983C3.23656 3.2983 2.69956 3.8383 2.69956 4.5463C2.69956 5.2403 3.22056 5.7943 4.02656 5.7943H4.04256ZM8.95056 14.0063V9.9713C8.95056 9.75531 8.96656 9.5393 9.03056 9.3853C9.20356 8.9543 9.59856 8.5073 10.2626 8.5073C11.1316 8.5073 11.4786 9.1693 11.4786 10.1413V14.0063H13.8796V9.8623C13.8796 7.6423 12.6956 6.6103 11.1156 6.6103C9.84156 6.6103 9.27056 7.3103 8.95056 7.8033V7.8283H8.93456C8.93987 7.81996 8.9452 7.81162 8.95056 7.8033V6.7813H6.55056C6.58056 7.4593 6.55056 14.0063 6.55056 14.0063H8.95056Z" fill="black"/>
</g>
<defs>
<clipPath id="clip0_9_235">
<rect width="16" height="16" fill="white" transform="translate(0.299561 0.612305)"/>
</clipPath>
</defs>
</svg>
