<svg width="200" height="32" viewBox="0 0 200 32" fill="none" xmlns="http://www.w3.org/2000/svg">
<g clip-path="url(#clip0_1017_30)">
<path d="M51.6581 27.2636L49.3924 23.8378L49.9691 26.8876C49.9691 28.141 47.5386 27.6396 47.5386 27.6396C44.449 27.013 36.7044 23.8377 34.068 22.5008C34.068 22.5008 23.9753 18.1558 20.0206 13.393C20.0206 13.393 19.2791 11.889 21.3388 10.3431C19.4439 10.8445 17.5901 11.8472 18.9083 14.3121C19.6086 15.6908 21.174 17.0278 23.1102 18.3647C22.863 23.6289 24.552 26.4698 29.001 29.4779C35.7981 33.1127 41.071 30.4806 43.5015 28.6841C45.932 29.3108 48.2389 29.7286 49.9691 29.6868C51.9464 29.4779 52.2348 28.9766 51.6581 27.2636Z" fill="#AD1A19"/>
<path d="M47.6622 18.8243C47.6622 11.9725 42.1833 6.37415 35.3862 6.37415C29.9897 6.37415 25.4171 9.92536 23.7693 14.8135C29.6601 18.7825 37.6107 22.8351 46.0556 24.8822C47.0855 23.0857 47.6622 21.0386 47.6622 18.8243ZM32.7085 15.7744C31.1431 15.7744 29.8661 14.4793 29.8661 12.8917C29.8661 11.3041 31.1431 10.0089 32.7085 10.0089C34.2739 10.0089 35.551 11.3041 35.551 12.8917C35.551 14.4793 34.2739 15.7744 32.7085 15.7744Z" fill="#AD1A19"/>
<path d="M6.71473 29.4946C5.3965 29.035 4.20185 28.283 3.21318 27.2803C2.22451 26.2776 1.44181 24.9407 0.865088 23.2695C0.288362 21.6402 0 19.593 0 17.2116C0 14.8302 0.288362 12.783 0.865088 11.1119C1.44181 9.44069 2.22451 8.10377 3.21318 7.10107C4.20185 6.09838 5.3965 5.34636 6.71473 4.88679C8.03296 4.42722 9.47477 4.21832 10.999 4.21832H20.5149V8.68867H11.6993C10.793 8.68867 9.92791 8.81401 9.14521 9.10646C8.32132 9.39892 7.62101 9.85848 7.04428 10.4852C6.42636 11.1536 5.97322 12.031 5.64367 13.1172C5.31411 14.2035 5.14933 15.5822 5.14933 17.2534C5.14933 18.9245 5.31411 20.3032 5.64367 21.3895C5.97322 22.4757 6.46756 23.3531 7.04428 24.0216C7.6622 24.69 8.36251 25.1496 9.14521 25.4003C9.9691 25.6927 10.793 25.8181 11.6993 25.8181H20.4737V30.2884H10.999C9.47477 30.2048 8.03296 29.9542 6.71473 29.4946Z" fill="#12100B"/>
<path d="M61.1328 30.2049C59.8558 30.2049 58.6199 29.996 57.4665 29.6199C56.313 29.2439 55.3243 28.6172 54.4593 27.7399C53.5942 26.8625 52.9351 25.7345 52.4407 24.314C51.9464 22.8935 51.6992 21.1388 51.6992 19.0916C51.6992 17.0027 51.9464 15.248 52.4407 13.8693C52.9351 12.4488 53.6354 11.3208 54.4593 10.4434C55.3243 9.56604 56.313 8.93935 57.4665 8.56334C58.6199 8.18733 59.8146 7.97844 61.1328 7.97844H67.0648V0.5H71.8434V30.2049H61.1328ZM67.0648 25.9852V12.1146H61.7507C61.0092 12.1146 60.3089 12.2399 59.691 12.4488C59.0319 12.6577 58.4963 13.0337 58.002 13.5768C57.5077 14.1199 57.1369 14.8302 56.8485 15.7075C56.5602 16.5849 56.4366 17.7129 56.4366 19.0499C56.4366 20.3868 56.5602 21.5148 56.8485 22.3922C57.1369 23.2695 57.5077 23.9798 58.002 24.5229C58.4963 25.066 59.0319 25.442 59.691 25.6509C60.3501 25.8598 61.0092 25.9852 61.7507 25.9852H67.0648Z" fill="#12100B"/>
<path d="M80.9062 29.62C79.7527 29.244 78.764 28.6173 77.899 27.7399C77.0339 26.8625 76.3748 25.7345 75.8804 24.314C75.3861 22.8935 75.1389 21.1388 75.1389 19.0917C75.1389 17.0027 75.3861 15.248 75.8804 13.8693C76.3748 12.4488 77.0751 11.3208 77.899 10.4434C78.764 9.56606 79.7527 8.93937 80.9062 8.56336C82.0596 8.18735 83.2543 7.97845 84.5725 7.97845H92.729V12.1564H85.1904C84.5725 12.1564 83.9546 12.2399 83.3778 12.407C82.8011 12.5741 82.3068 12.8248 81.8536 13.2008C81.4005 13.5768 81.0298 14.0782 80.7002 14.7049C80.3706 15.3316 80.1647 16.0836 79.9999 17.0027H92.6878V21.2224H79.9999C80.1647 22.1833 80.3706 22.9353 80.7002 23.562C81.0298 24.1887 81.4005 24.69 81.8536 25.0661C82.3068 25.4421 82.8011 25.6927 83.3778 25.8599C83.9546 26.027 84.5313 26.0688 85.1904 26.0688H92.729V30.2466H84.5725C83.2543 30.2049 82.0596 29.996 80.9062 29.62Z" fill="#12100B"/>
<path d="M94.1709 7.93665H99.5262L106.365 24.314L113.203 7.93665H118.558L108.754 30.2048H103.975L94.1709 7.93665Z" fill="#12100B"/>
<path d="M124.737 29.62C123.584 29.244 122.595 28.6173 121.73 27.7399C120.865 26.8625 120.206 25.7345 119.712 24.314C119.217 22.8935 118.97 21.1388 118.97 19.0917C118.97 17.0027 119.217 15.248 119.712 13.8693C120.206 12.4488 120.906 11.3208 121.73 10.4434C122.595 9.56606 123.584 8.93937 124.737 8.56336C125.891 8.18735 127.086 7.97845 128.404 7.97845H136.56V12.1564H129.022C128.404 12.1564 127.786 12.2399 127.209 12.407C126.632 12.5741 126.138 12.8248 125.685 13.2008C125.232 13.5768 124.861 14.0782 124.531 14.7049C124.202 15.3316 123.996 16.0836 123.831 17.0027H136.519V21.2224H123.831C123.996 22.1833 124.202 22.9353 124.531 23.562C124.861 24.1887 125.232 24.69 125.685 25.0661C126.138 25.4421 126.632 25.6927 127.209 25.8599C127.786 26.027 128.363 26.0688 129.022 26.0688H136.56V30.2466H128.404C127.086 30.2049 125.85 29.996 124.737 29.62Z" fill="#12100B"/>
<path d="M140.556 16.3343C140.556 14.7884 140.803 13.4515 141.298 12.3652C141.792 11.279 142.492 10.4016 143.316 9.73317C144.181 9.06471 145.17 8.60514 146.323 8.31269C147.477 8.02023 148.671 7.8949 149.99 7.8949H157.034V16.7938H152.255V12.1146H150.608C149.866 12.1146 149.166 12.1981 148.548 12.3235C147.889 12.4906 147.353 12.6995 146.859 13.0337C146.365 13.3679 145.994 13.7857 145.705 14.3289C145.417 14.872 145.293 15.5405 145.293 16.3343V30.1631H140.515V16.3343H140.556Z" fill="#12100B"/>
<path d="M160.783 25.9852H172.276C173.1 25.9852 173.8 25.818 174.377 25.442C174.954 25.066 175.242 24.4811 175.242 23.6038C175.242 22.6428 174.954 22.0162 174.377 21.6819C173.8 21.3477 173.1 21.1806 172.276 21.1806H166.921C165.891 21.1806 164.943 21.0552 164.119 20.8463C163.296 20.6375 162.554 20.2614 161.977 19.7183C161.401 19.1752 160.947 18.5067 160.618 17.6711C160.288 16.8356 160.124 15.7493 160.124 14.4959C160.124 13.2426 160.288 12.2399 160.618 11.3625C160.947 10.5269 161.401 9.85848 161.977 9.35713C162.554 8.85578 163.296 8.47977 164.119 8.27088C164.943 8.06198 165.891 7.93665 166.921 7.93665H179.032V12.1145H167.539C166.715 12.1145 166.014 12.2817 165.396 12.6577C164.82 13.0337 164.531 13.6186 164.531 14.4959C164.531 15.4569 164.82 16.0835 165.396 16.4178C165.973 16.752 166.673 16.9191 167.497 16.9191H172.811C173.841 16.9191 174.748 17.0445 175.613 17.2534C176.478 17.4623 177.178 17.8383 177.755 18.3814C178.332 18.9245 178.785 19.593 179.114 20.4286C179.444 21.2641 179.609 22.3504 179.609 23.6038C179.609 24.8571 179.444 25.9016 179.155 26.7372C178.826 27.5728 178.373 28.2412 177.796 28.7426C177.219 29.2439 176.519 29.6199 175.654 29.8288C174.83 30.0377 173.883 30.1631 172.853 30.1631H160.741V25.9852H160.783Z" fill="#12100B"/>
<path d="M188.177 29.62C187.024 29.244 186.035 28.6173 185.17 27.7399C184.305 26.8625 183.646 25.7345 183.151 24.314C182.657 22.8935 182.41 21.1388 182.41 19.0917C182.41 17.0027 182.657 15.248 183.151 13.8693C183.646 12.4488 184.346 11.3208 185.17 10.4434C186.035 9.56606 187.024 8.93937 188.177 8.56336C189.331 8.18735 190.525 7.97845 191.843 7.97845H200V12.1564H192.461C191.843 12.1564 191.226 12.2399 190.649 12.407C190.072 12.5741 189.578 12.8248 189.125 13.2008C188.672 13.5768 188.301 14.0782 187.971 14.7049C187.642 15.3316 187.436 16.0836 187.271 17.0027H199.959V21.2224H187.271C187.436 22.1833 187.642 22.9353 187.971 23.562C188.301 24.1887 188.672 24.69 189.125 25.0661C189.578 25.4421 190.072 25.6927 190.649 25.8599C191.226 26.027 191.802 26.0688 192.461 26.0688H200V30.2466H191.843C190.566 30.2049 189.331 29.996 188.177 29.62Z" fill="#12100B"/>
</g>
<defs>
<clipPath id="clip0_1017_30">
<rect width="200" height="31" fill="white" transform="translate(0 0.5)"/>
</clipPath>
</defs>
</svg>
