<svg width="22" height="22" viewBox="0 0 22 22" fill="none" xmlns="http://www.w3.org/2000/svg">
<path d="M7.30034 1.76904H14.7288C17.5587 1.76904 19.858 4.06834 19.858 6.89824V14.3267C19.858 15.6871 19.3176 16.9917 18.3557 17.9536C17.3938 18.9155 16.0892 19.4559 14.7288 19.4559H7.30034C4.47044 19.4559 2.17114 17.1566 2.17114 14.3267V6.89824C2.17114 5.5379 2.71154 4.23326 3.67345 3.27135C4.63536 2.30944 5.93999 1.76904 7.30034 1.76904ZM7.12347 3.53773C6.27912 3.53773 5.46935 3.87315 4.8723 4.4702C4.27525 5.06725 3.93983 5.87702 3.93983 6.72137V14.5036C3.93983 16.2635 5.36363 17.6873 7.12347 17.6873H14.9057C15.7501 17.6873 16.5598 17.3518 17.1569 16.7548C17.7539 16.1577 18.0894 15.348 18.0894 14.5036V6.72137C18.0894 4.96153 16.6656 3.53773 14.9057 3.53773H7.12347ZM15.6574 4.86425C15.9506 4.86425 16.2318 4.98072 16.4391 5.18802C16.6464 5.39533 16.7628 5.6765 16.7628 5.96968C16.7628 6.26286 16.6464 6.54403 16.4391 6.75134C16.2318 6.95865 15.9506 7.07511 15.6574 7.07511C15.3642 7.07511 15.0831 6.95865 14.8757 6.75134C14.6684 6.54403 14.552 6.26286 14.552 5.96968C14.552 5.6765 14.6684 5.39533 14.8757 5.18802C15.0831 4.98072 15.3642 4.86425 15.6574 4.86425ZM11.0146 6.19077C12.1873 6.19077 13.312 6.65663 14.1412 7.48586C14.9705 8.31509 15.4363 9.43978 15.4363 10.6125C15.4363 11.7852 14.9705 12.9099 14.1412 13.7391C13.312 14.5684 12.1873 15.0342 11.0146 15.0342C9.84188 15.0342 8.71719 14.5684 7.88796 13.7391C7.05873 12.9099 6.59287 11.7852 6.59287 10.6125C6.59287 9.43978 7.05873 8.31509 7.88796 7.48586C8.71719 6.65663 9.84188 6.19077 11.0146 6.19077ZM11.0146 7.95946C10.311 7.95946 9.63615 8.23897 9.13861 8.73651C8.64107 9.23405 8.36156 9.90886 8.36156 10.6125C8.36156 11.3161 8.64107 11.9909 9.13861 12.4885C9.63615 12.986 10.311 13.2655 11.0146 13.2655C11.7182 13.2655 12.393 12.986 12.8906 12.4885C13.3881 11.9909 13.6676 11.3161 13.6676 10.6125C13.6676 9.90886 13.3881 9.23405 12.8906 8.73651C12.393 8.23897 11.7182 7.95946 11.0146 7.95946Z" fill="black"/>
</svg>
