<!DOCTYPE svg PUBLIC "-//W3C//DTD SVG 1.1//EN" "http://www.w3.org/Graphics/SVG/1.1/DTD/svg11.dtd">
<!-- Uploaded to: SVG Repo, www.svgrepo.com, Transformed by: SVG Repo Mixer Tools -->
<svg version="1.1" id="Layer_1" xmlns="http://www.w3.org/2000/svg" xmlns:xlink="http://www.w3.org/1999/xlink" viewBox="0 0 512 512" xml:space="preserve" width="64px" height="64px" fill="#ffffff" stroke="#ffffff">
<g id="SVGRepo_bgCarrier" stroke-width="0"/>
<g id="SVGRepo_tracerCarrier" stroke-linecap="round" stroke-linejoin="round"/>
<g id="SVGRepo_iconCarrier"> <path d="M0,304V28.448c0-4.896,4.184-8.888,9.288-8.888h436.536c5.104,0,9.288,4,9.288,8.888V304H0z"/> <g> <path style="fill:#541388;" d="M455.112,304v37.92c0,5.216-4.184,9.488-9.288,9.488H9.288c-5.104,0-9.288-4.264-9.288-9.48v-37.92 L455.112,304L455.112,304z"/> <polygon style="fill:#541388;" points="161.184,417.776 293.92,417.776 284.448,351.408 170.664,351.408 "/> </g> <g> <polygon style="fill:#541388;" points="284.448,351.408 170.664,351.408 164.76,392.776 286.656,366.88 "/> <rect x="128" y="417.76" style="fill:#541388;" width="199.112" height="9.48"/> </g> <rect x="55.512" y="59.032" style="fill:#541388;" width="344.08" height="88.8"/> <rect x="55.512" y="175.728" style="fill:#FFFFFF;" width="344.08" height="88.8"/> <path d="M503.216,492.44H356.8c-4.832,0-8.784-3.952-8.784-8.784V208.4c0-4.832,3.952-8.784,8.784-8.784h146.416 c4.832,0,8.784,3.952,8.784,8.784v275.264C512,488.488,508.048,492.44,503.216,492.44z"/> <rect x="356.8" y="223.04" width="146.416" height="234.24"/> <g> <path style="fill:#541388;" d="M447.424,214.256h-35.136c-1.608,0-2.928-1.32-2.928-2.928l0,0c0-1.608,1.32-2.928,2.928-2.928 h35.136c1.608,0,2.928,1.32,2.928,2.928l0,0C450.352,212.936,449.032,214.256,447.424,214.256z"/> <path style="fill:#541388;" d="M447.576,474.872H412.44c-1.608,0-2.928-1.32-2.928-2.928l0,0c0-1.608,1.32-2.928,2.928-2.928 h35.136c1.608,0,2.928,1.32,2.928,2.928l0,0C450.504,473.552,449.184,474.872,447.576,474.872z"/> <rect x="374.376" y="243.968" style="fill:#541388;" width="111.272" height="55.768"/> </g> <rect x="374.376" y="312.32" style="fill:#FFFFFF;" width="111.272" height="55.768"/> <rect x="374.376" y="380.616" style="fill:#541388;" width="111.272" height="55.768"/> </g>
</svg>