<svg width="22" height="22" viewBox="0 0 22 22" fill="none" xmlns="http://www.w3.org/2000/svg">
<path d="M11.3518 3.5376C11.8241 3.54025 13.0056 3.55175 14.2613 3.60215L14.707 3.62161C15.9708 3.68086 17.2336 3.78345 17.8606 3.95766C18.6963 4.1929 19.3525 4.87738 19.5745 5.74581C19.9282 7.12539 19.9724 9.81556 19.9777 10.4673L19.9786 10.6017V10.7556C19.9724 11.4074 19.9282 14.0984 19.5745 15.4771C19.3498 16.3482 18.6928 17.0336 17.8606 17.2653C17.2336 17.4395 15.9708 17.5421 14.707 17.6013L14.2613 17.6217C13.0056 17.6712 11.8241 17.6836 11.3518 17.6853L11.144 17.6862H10.9185C9.91919 17.68 5.73978 17.6349 4.40972 17.2653C3.5749 17.03 2.91783 16.3456 2.69586 15.4771C2.34213 14.0976 2.29791 11.4074 2.2926 10.7556V10.4673C2.29791 9.81556 2.34213 7.1245 2.69586 5.74581C2.92049 4.87473 3.57756 4.18936 4.41061 3.95855C5.73978 3.58801 9.92008 3.5429 10.9194 3.5376H11.3518ZM9.36648 7.51715V13.7076L14.6725 10.6124L9.36648 7.51715Z" fill="black"/>
</svg>
